<?xml version="1.0" encoding="UTF-8" standalone="no"?><svg xmlns="http://www.w3.org/2000/svg" xmlns:xlink="http://www.w3.org/1999/xlink" contentScriptType="application/ecmascript" contentStyleType="text/css" height="215px" preserveAspectRatio="none" style="width:299px;height:215px;" version="1.1" viewBox="0 0 299 215" width="299px" zoomAndPan="magnify"><defs><filter height="300%" id="f120q9cg3cnwv8" width="300%" x="-1" y="-1"><feGaussianBlur result="blurOut" stdDeviation="2.0"/><feColorMatrix in="blurOut" result="blurOut2" type="matrix" values="0 0 0 0 0 0 0 0 0 0 0 0 0 0 0 0 0 0 .4 0"/><feOffset dx="4.0" dy="4.0" in="blurOut2" result="blurOut3"/><feBlend in="SourceGraphic" in2="blurOut3" mode="normal"/></filter></defs><g><path d="M33,38.2969 L33.2802,38.2969 L32.4476,48.0491 L33.2577,57.8013 L33.5329,67.5536 L32.0488,77.3058 L32.8964,87.058 L32.4313,96.8103 L32.4887,106.5625 L32.9091,116.3147 L32.0782,126.067 L33.7382,135.8192 L32.1596,145.5714 L32.7363,155.3237 L33.5759,165.0759 L33,174.8281 " fill="none" style="stroke: #383838; stroke-width: 1.0; stroke-dasharray: 5.0,5.0;"/><path d="M269,38.2969 L269.2802,38.2969 L268.4476,48.0491 L269.2577,57.8013 L269.5329,67.5536 L268.0488,77.3058 L268.8964,87.058 L268.4313,96.8103 L268.4887,106.5625 L268.9091,116.3147 L268.0782,126.067 L269.7382,135.8192 L268.1596,145.5714 L268.7363,155.3237 L269.5759,165.0759 L269,174.8281 " fill="none" style="stroke: #383838; stroke-width: 1.0; stroke-dasharray: 5.0,5.0;"/><polygon fill="#F8F8F8" filter="url(#f120q9cg3cnwv8)" points="8,3,8,3.2102,17.2,2.5857,26.4,3.1933,35.6,3.3997,44.8,2.2866,54,3,53.9741,3,53.8578,9.0594,53.8722,15.1188,53.9773,21.1781,53.7695,27.2375,54,33.2969,54,33.8505,44.8,32.6666,35.6,33.0991,26.4,33.7288,17.2,33.2111,8,33.2969,8.0227,33.2969,7.9894,27.2375,8.0595,21.1781,8.0797,15.1187,8.1952,9.0594,8,3" style="stroke: #383838; stroke-width: 1.5;"/><text fill="#000000" font-family="sans-serif" font-size="14" lengthAdjust="spacingAndGlyphs" textLength="32" x="15" y="22.9951">Alice</text><polygon fill="#F8F8F8" filter="url(#f120q9cg3cnwv8)" points="8,173.8281,8,174.0383,17.2,173.4138,26.4,174.0214,35.6,174.2278,44.8,173.1147,54,173.8281,53.9741,173.8281,53.8578,179.8875,53.8722,185.9469,53.9773,192.0063,53.7695,198.0656,54,204.125,54,204.6786,44.8,203.4947,35.6,203.9272,26.4,204.5569,17.2,204.0392,8,204.125,8.0227,204.125,7.9894,198.0656,8.0595,192.0063,8.0797,185.9469,8.1952,179.8875,8,173.8281" style="stroke: #383838; stroke-width: 1.5;"/><text fill="#000000" font-family="sans-serif" font-size="14" lengthAdjust="spacingAndGlyphs" textLength="32" x="15" y="193.8232">Alice</text><polygon fill="#F8F8F8" filter="url(#f120q9cg3cnwv8)" points="246,3,246,3.0701,254.4,2.8619,262.8,3.0644,271.2,3.1332,279.6,2.7622,288,3,287.9741,3,287.8578,9.0594,287.8722,15.1188,287.9773,21.1781,287.7695,27.2375,288,33.2969,288,33.4814,279.6,33.0868,271.2,33.231,262.8,33.4409,254.4,33.2683,246,33.2969,246.0227,33.2969,245.9894,27.2375,246.0595,21.1781,246.0797,15.1187,246.1952,9.0594,246,3" style="stroke: #383838; stroke-width: 1.5;"/><text fill="#000000" font-family="sans-serif" font-size="14" lengthAdjust="spacingAndGlyphs" textLength="28" x="253" y="22.9951">Bob</text><polygon fill="#F8F8F8" filter="url(#f120q9cg3cnwv8)" points="246,173.8281,246,173.8982,254.4,173.69,262.8,173.8926,271.2,173.9614,279.6,173.5903,288,173.8281,287.9741,173.8281,287.8578,179.8875,287.8722,185.9469,287.9773,192.0063,287.7695,198.0656,288,204.125,288,204.3095,279.6,203.9149,271.2,204.0591,262.8,204.269,254.4,204.0964,246,204.125,246.0227,204.125,245.9894,198.0656,246.0595,192.0063,246.0797,185.9469,246.1952,179.8875,246,173.8281" style="stroke: #383838; stroke-width: 1.5;"/><text fill="#000000" font-family="sans-serif" font-size="14" lengthAdjust="spacingAndGlyphs" textLength="28" x="253" y="193.8232">Bob</text><polygon fill="#383838" points="257,65.4297,257.026,65.4947,258.9487,66.1015,261.0239,67.0895,263.0495,67.9534,264.9117,68.4089,267,69.4297,266.9904,69.4056,264.9472,70.0977,262.9525,70.911,260.9916,71.8086,258.9144,72.4157,257,73.4297,257.1305,73.5602,257.6514,72.4811,258.5534,71.7831,259.5018,71.1315,260.1798,70.2095,261,69.4297,261.0161,69.4458,260.1925,68.6222,259.4421,67.8718,258.6564,67.0861,257.938,66.3677,257,65.4297" style="stroke: #383838; stroke-width: 1.0;"/><path d="M33,69.4297 L33,69.7099 L43,68.8773 L53,69.6874 L63,69.9626 L73,68.4785 L83,69.3261 L93,68.861 L103,68.9184 L113,69.3388 L123,68.5079 L133,70.1679 L143,68.5893 L153,69.166 L163,70.0056 L173,69.3153 L183,69.5207 L193,69.3871 L203,69.6677 L213,69.7485 L223,70.2106 L233,70.3244 L243,70.3354 L253,69.7692 L263,69.4297 " fill="none" style="stroke: #383838; stroke-width: 1.0;"/><text fill="#000000" font-family="sans-serif" font-size="13" lengthAdjust="spacingAndGlyphs" textLength="149" x="40" y="64.3638">Authentication Request</text><polygon fill="#383838" points="44,94.5625,44.026,94.6275,41.9487,95.2343,40.0239,96.2223,38.0495,97.0862,35.9117,97.5417,34,98.5625,33.9904,98.5384,35.9472,99.2305,37.9525,100.0438,39.9916,100.9414,41.9144,101.5485,44,102.5625,44.1305,102.693,43.0514,101.6139,42.3534,100.9159,41.7018,100.2643,40.7798,99.3423,40,98.5625,40.0161,98.5786,40.7925,97.755,41.6421,97.0046,42.4564,96.2189,43.338,95.5005,44,94.5625" style="stroke: #383838; stroke-width: 1.0;"/><path d="M38,98.5625 L38,98.8427 L48,98.0101 L58,98.8202 L68,99.0954 L78,97.6113 L88,98.4589 L98,97.9938 L108,98.0512 L118,98.4716 L128,97.6407 L138,99.3007 L148,97.7221 L158,98.2988 L168,99.1384 L178,98.4481 L188,98.6535 L198,98.5199 L208,98.8005 L218,98.8813 L228,99.3434 L238,99.4572 L248,99.4682 L258,98.902 L268,98.5625 " fill="none" style="stroke: #383838; stroke-width: 1.0; stroke-dasharray: 2.0,2.0;"/><text fill="#000000" font-family="sans-serif" font-size="13" lengthAdjust="spacingAndGlyphs" textLength="159" x="50" y="93.4966">Authentication Response</text><polygon fill="#383838" points="257,123.6953,257.026,123.7604,258.9487,124.3671,261.0239,125.3551,263.0495,126.219,264.9117,126.6745,267,127.6953,266.9904,127.6713,264.9472,128.3633,262.9525,129.1766,260.9916,130.0742,258.9144,130.6813,257,131.6953,257.1305,131.8258,257.6514,130.7468,258.5534,130.0487,259.5018,129.3971,260.1798,128.4751,261,127.6953,261.0161,127.7114,260.1925,126.8878,259.4421,126.1374,258.6564,125.3517,257.938,124.6334,257,123.6953" style="stroke: #383838; stroke-width: 1.0;"/><path d="M33,127.6953 L33,127.9756 L43,127.1429 L53,127.953 L63,128.2282 L73,126.7441 L83,127.5917 L93,127.1267 L103,127.184 L113,127.6044 L123,126.7735 L133,128.4335 L143,126.8549 L153,127.4316 L163,128.2712 L173,127.5809 L183,127.7863 L193,127.6527 L203,127.9333 L213,128.0142 L223,128.4762 L233,128.5901 L243,128.601 L253,128.0348 L263,127.6953 " fill="none" style="stroke: #383838; stroke-width: 1.0;"/><text fill="#000000" font-family="sans-serif" font-size="13" lengthAdjust="spacingAndGlyphs" textLength="203" x="40" y="122.6294">Another authentication Request</text><polygon fill="#383838" points="44,152.8281,44.026,152.8932,41.9487,153.4999,40.0239,154.4879,38.0495,155.3518,35.9117,155.8073,34,156.8281,33.9904,156.8041,35.9472,157.4961,37.9525,158.3094,39.9916,159.207,41.9144,159.8142,44,160.8281,44.1305,160.9586,43.0514,159.8796,42.3534,159.1815,41.7018,158.5299,40.7798,157.6079,40,156.8281,40.0161,156.8442,40.7925,156.0206,41.6421,155.2702,42.4564,154.4845,43.338,153.7662,44,152.8281" style="stroke: #383838; stroke-width: 1.0;"/><path d="M38,156.8281 L38,157.1084 L48,156.2757 L58,157.0858 L68,157.361 L78,155.8769 L88,156.7245 L98,156.2595 L108,156.3168 L118,156.7372 L128,155.9063 L138,157.5663 L148,155.9878 L158,156.5644 L168,157.4041 L178,156.7138 L188,156.9191 L198,156.7855 L208,157.0662 L218,157.147 L228,157.609 L238,157.7229 L248,157.7338 L258,157.1676 L268,156.8281 " fill="none" style="stroke: #383838; stroke-width: 1.0; stroke-dasharray: 2.0,2.0;"/><text fill="#000000" font-family="sans-serif" font-size="13" lengthAdjust="spacingAndGlyphs" textLength="212" x="50" y="151.7622">another authentication Response</text><!--
@startuml
skinparam handwritten true
skinparam monochrome true
Alice -> Bob: Authentication Request
Bob - -> Alice: Authentication Response

Alice -> Bob: Another authentication Request
Alice <- - Bob: another authentication Response
@enduml

PlantUML version 1.2018.13(Mon Nov 26 17:11:51 UTC 2018)
(APACHE source distribution)
Java Runtime: Java(TM) SE Runtime Environment
JVM: Java HotSpot(TM) 64-Bit Server VM
Java Version: 1.8.0_151-b12
Operating System: Linux
OS Version: 4.4.0-101-generic
Default Encoding: UTF-8
Language: en
Country: US
--></g></svg>